<?xml version="1.0" encoding="UTF-8"?>
<svg width="512px" height="490px" viewBox="0 0 512 490" version="1.1" xmlns="http://www.w3.org/2000/svg" xmlns:xlink="http://www.w3.org/1999/xlink">
    <title>star_FF6629</title>
    <g id="Page-1" stroke="none" stroke-width="1" fill="none" fill-rule="evenodd">
        <g id="star" fill="#FF6629" fill-rule="nonzero">
            <path d="M511.267,186.258 C509.503,180.827 504.81,176.869 499.16,176.049 L340.437,152.984 L269.452,9.157 C266.926,4.037 261.711,0.796 256.002,0.796 C250.292,0.796 245.078,4.037 242.551,9.157 L171.563,152.984 L12.843,176.049 C7.194,176.869 2.499,180.827 0.735,186.257 C-1.03,191.688 0.442,197.649 4.531,201.634 L119.379,313.588 L92.271,471.671 C91.305,477.299 93.619,482.985 98.238,486.342 C100.851,488.24 103.946,489.206 107.056,489.206 C109.444,489.206 111.84,488.637 114.034,487.483 L256.001,412.845 L397.962,487.482 C403.017,490.139 409.14,489.697 413.759,486.341 C418.378,482.985 420.693,477.297 419.728,471.669 L392.611,313.588 L507.472,201.633 C511.56,197.649 513.033,191.688 511.267,186.258 Z" id="Path"></path>
        </g>
    </g>
</svg>